inDegrees=no
num_controls=7
num_derivatives=13
num_iterations=157
num_multipliers=7
num_parameters=0
num_slacks=7
num_states=26
objective=5.785056
objective_accelerations=0.683144
objective_balance=0.015712
objective_effort=0.488409
objective_height=4.527411
objective_ligament=0.070380
solver_duration=1353.415977
status=Solve_Succeeded
success=true
DataType=double
version=3
OpenSimVersion=4.4-2022-07-23-0e9fedc
endheader
time	/jointset/ground_pelvis/pelvis_tilt/value	/jointset/ground_pelvis/pelvis_tx/value	/jointset/ground_pelvis/pelvis_ty/value	/jointset/hip_r/hip_flexion_r/value	/jointset/hip_r/hip_adduction_r/value	/jointset/hip_r/hip_rotation_r/value	/jointset/back/lumbar_extension/value	/jointset/patellofemoral_r/patellar_flexion_r/value	/jointset/knee_r/knee_flexion_r/value	/jointset/knee_r/knee_adduction_r/value	/jointset/knee_r/knee_rotation_r/value	/jointset/ankle_r/ankle_angle_r/value	/jointset/subtalar_r/subtalar_angle_r/value	/jointset/ground_pelvis/pelvis_tilt/speed	/jointset/ground_pelvis/pelvis_tx/speed	/jointset/ground_pelvis/pelvis_ty/speed	/jointset/hip_r/hip_flexion_r/speed	/jointset/hip_r/hip_adduction_r/speed	/jointset/hip_r/hip_rotation_r/speed	/jointset/back/lumbar_extension/speed	/jointset/patellofemoral_r/patellar_flexion_r/speed	/jointset/knee_r/knee_flexion_r/speed	/jointset/knee_r/knee_adduction_r/speed	/jointset/knee_r/knee_rotation_r/speed	/jointset/ankle_r/ankle_angle_r/speed	/jointset/subtalar_r/subtalar_angle_r/speed	/forceset/tau_hip_flexion_r	/forceset/tau_hip_adduction_r	/forceset/tau_hip_rotation_r	/forceset/tau_knee_flexion_r	/forceset/tau_ankle_angle_r	/forceset/tau_subtalar_angle_r	/forceset/tau_lumbar_extension	lambda_cid13_p0	lambda_cid14_p0	lambda_cid14_p1	lambda_cid14_p2	lambda_cid14_p3	lambda_cid14_p4	lambda_cid14_p5	/jointset/ground_pelvis/pelvis_tilt/accel	/jointset/ground_pelvis/pelvis_tx/accel	/jointset/ground_pelvis/pelvis_ty/accel	/jointset/hip_r/hip_flexion_r/accel	/jointset/hip_r/hip_adduction_r/accel	/jointset/hip_r/hip_rotation_r/accel	/jointset/back/lumbar_extension/accel	/jointset/patellofemoral_r/patellar_flexion_r/accel	/jointset/knee_r/knee_flexion_r/accel	/jointset/knee_r/knee_adduction_r/accel	/jointset/knee_r/knee_rotation_r/accel	/jointset/ankle_r/ankle_angle_r/accel	/jointset/subtalar_r/subtalar_angle_r/accel	gamma_cid13_p0	gamma_cid14_p0	gamma_cid14_p1	gamma_cid14_p2	gamma_cid14_p3	gamma_cid14_p4	gamma_cid14_p5
1	-0.2565851239824989	-0.02073105283036478	0.6043329034285831	1.528075490908491	-0.2409733842400794	-0.06759236403316658	-0.78539592834825	1.587411557541617	1.587411557541601	-0.174532916895742	0.1745328865373004	0.4362391330703254	0.1702634314265428	0.07083031554465906	0.004656355301627337	0.01561758484723998	-0.1013495380492561	-0.001149266751563902	-0.002969115994512452	-4.196069590063532e-05	-0.01657124711615032	-0.01657124711614995	0.002786965397369434	-0.0001119275816122275	0.01403304702647474	0.005001103522635	-0.3519420660728868	0.01622340896496319	0.007012077289753147	-0.4772473141849303	-0.01626206694898129	0.009865967416654792	0.3693227698968433	-0.04015529295353011	-57.0797834837053	-8.575463459984242	5.062754319079297	9.273393815414138	-779.3533212825124	75.88704518537823	1.236647222464286	0.1077836640237969	1.999671903352597	-5.817234150921699	0.2487928610882865	-0.8763105470091646	-0.02304051732241831	-5.376068803031083	-5.376068803031054	0.5025384846768836	-0.01479067876962108	-0.942338658273758	0.01461832822085248	1.811787222927863e-09	1.490762801148011e-09	6.957188689955906e-09	1.09757228820377e-08	-1.602486036670214e-10	-6.018818112516047e-09	1.721504921510094e-08
1.01	-0.2558155673140292	-0.02067906646199208	0.6045889903749706	1.526771765941614	-0.2409723821108655	-0.06766278358915613	-0.78539675249344	1.586977296621329	1.586977296621311	-0.1744768760175445	0.1745306287457271	0.4363323012709133	0.1703141765627214	0.0830836110134045	0.00574738835319734	0.03560395442836942	-0.1594125412392776	0.0013474613412765	-0.01105357581573177	-0.0001173258872977015	-0.07029333298145317	-0.07029333298145274	0.008492187137967509	-0.0003378835143272469	0.004596079251118959	0.005139583514539276	-0.3514836518946282	0.01617057124793799	0.007121058092250025	-0.4777631832425909	-0.01570780393681319	0.009833407722933877	0.3691728934596583	-0.04016042180170501	-56.90812392616017	-8.568808707607527	5.072271744889051	9.105846041339612	-779.4414971280224	75.97661452097425	1.220061145961199	0.110733439467495	1.998739276772681	-5.803395032430164	0.249782586412873	-0.7653288861517138	0.001046844100287227	-5.372138967440333	-5.372138967440287	0.6151599219414023	-0.02622652159538564	-0.9450530516581519	0.01222049438327765	5.380559435534604e-09	5.610648032998583e-09	2.947476637741687e-08	3.408285366414566e-08	-9.106834253420021e-10	-1.346709797466284e-08	6.634687331196429e-08
1.02	-0.2549233996034993	-0.02061597570035452	0.6050450649754253	1.524886898616961	-0.2409464787401158	-0.0678122107806525	-0.7853981633974483	1.586005442744556	1.586005442744558	-0.1743616537413483	0.1745261657005136	0.4363309643512431	0.1703660580307609	0.09535252395741678	0.006877233954599699	0.05561511566068022	-0.2175780096048036	0.003830981555352398	-0.01877064309589751	-0.0001594365127355222	-0.1240898384131743	-0.1240898384131744	0.0146232450061777	-0.0005529782899546709	-0.00486797710390208	0.005228369894761688	-0.3510252377163512	0.01611773353091957	0.007230038895155738	-0.4782790523002189	-0.01515354092465009	0.009800848029214044	0.369023017022487	-0.04017365247938207	-56.74378581669657	-8.560699912957958	5.078431854695372	8.945279381885086	-779.6421820731118	76.0913086140533	1.23977071751757	0.115546173990394	2.004630233588877	-5.837727186022674	0.2461512853352252	-0.8028320387986027	-0.0163896041290548	-5.390952716314676	-5.39095271631477	0.58770571019934	-0.01261844735177854	-0.947756374206582	0.00467960588429832	1.233206929175839e-08	1.616358727323665e-08	6.784636112693154e-08	8.311684417526176e-08	-7.315449764677954e-09	-2.122198626542444e-08	1.612988810597819e-07
1.03	-0.253908949453187	-0.02054132608681283	0.6057012435305683	1.522420526548048	-0.2408958199185122	-0.06803705490158693	-0.7853980114029716	1.584495369687638	1.58449536968765	-0.1741830966434304	0.1745196495376219	0.4362347988332604	0.1704185254903251	0.1074911602019536	0.008065954933687339	0.07561169732395728	-0.2756474913440237	0.006298369542991596	-0.02615005791903715	0.0003780511810859769	-0.1779260813953254	-0.1779260813953268	0.02114224510781256	-0.0007471664084945027	-0.01437432829556183	0.005254114086790495	-0.3517304939113544	0.01628215270989668	0.007340197684611737	-0.4778254027514867	-0.01585335714694663	0.009827266731336964	0.3700076099834215	-0.04019226199531094	-56.99711466691715	-8.580570532079978	5.066737378133588	8.976373962865715	-780.1680411714785	76.0628285924639	1.1939637739536	0.1225221922763215	1.995831583098042	-5.784216557012173	0.2466873544489594	-0.6982683444306638	0.1170317256260429	-5.380160258784291	-5.380160258784336	0.6921033286469676	-0.02231918400960185	-0.953454320955926	-9.689167486749955e-05	1.931809687903951e-08	2.67821699217236e-08	1.06379731560753e-07	1.324153944795311e-07	-1.377791336439823e-08	-2.898000321362089e-08	2.567184417019972e-07
1.04	-0.252774502201223	-0.02045439183699826	0.6065571197924244	1.519374928083933	-0.2408205562572341	-0.06833424759883724	-0.7853868411577428	1.582446894166974	1.58244689416698	-0.173937728310768	0.1745112914555261	0.4360432938374872	0.1704709266483024	0.1193519442877673	0.009334161209175575	0.09555465700327007	-0.33342328864886	0.008751949489463111	-0.03324035835653903	0.002044089654424622	-0.2317703311622359	-0.2317703311622371	0.02798549194950379	-0.0009213621232094173	-0.02393587265963231	0.0052151095773331	-0.3524357501062753	0.01644657188885785	0.007450356473970567	-0.4773717532027631	-0.01655317336926423	0.009853685433421593	0.370992202944432	-0.04021878386541703	-57.25783381164847	-8.598664252892542	5.05125154396257	9.013097423468013	-780.8090427637395	76.06132560475845	1.184200285772867	0.1314432332705716	1.993905836796026	-5.778990299145981	0.2433896771016075	-0.7450091616711245	0.20932055177364	-5.392554073266526	-5.392554073266318	0.6525550582106442	-0.008619966586622264	-0.9587950086886283	-0.008270134413045079	2.59169408024879e-08	3.693442953637254e-08	1.426556719895001e-07	1.795551481614743e-07	-2.020589991636446e-08	-3.627305798167963e-08	3.46105199184273e-07
1.05	-0.2515226658704582	-0.02035430719191583	0.6076120715147465	1.515753037484965	-0.2407208759481364	-0.06870087643042048	-0.7853534860214145	1.579860160372543	1.579860160372563	-0.1736222927338694	0.1745013611655993	0.4357559509798264	0.1705225435995354	0.1309833491191751	0.01070312544815199	0.1154179423720453	-0.3909037131152183	0.0111784466942441	-0.04003616875991071	0.004806604652774137	-0.2855556558767093	-0.2855556558767088	0.03515370433270373	-0.001058681490542082	-0.03353618338774288	0.005093803431762529	-0.3527597293512319	0.0165556053859144	0.007627322760967791	-0.47670813570854	-0.01687342217313186	0.009860390981939282	0.371709302342075	-0.04024633899020653	-57.363102951776	-8.599633797129897	5.034786596750611	8.870439594338961	-780.9940609604249	76.0387041480314	1.147824049904381	0.1426712739918996	1.979869339734785	-5.724891957775526	0.2414584636186778	-0.6394644530701661	0.3366670292536234	-5.368412460676402	-5.368412460676253	0.7567585683596149	-0.01532334494754039	-0.9611707584041618	-0.01617744643819154	3.250368523644151e-08	4.707211655621405e-08	1.788610677305887e-07	2.266274394489698e-07	-2.663280906058837e-08	-4.355158268160905e-08	4.353034315678009e-07
1.06	-0.2501554727977621	-0.0202399232534872	0.6088651219813196	1.511557877953884	-0.2405970949226955	-0.06913398286072245	-0.7852871157239916	1.576736195172939	1.576736195172938	-0.1732336141850865	0.1744902505973575	0.4353725006841755	0.1705725241709512	0.1424232926737713	0.01219401987841504	0.1351744058534969	-0.4480770750773608	0.01357209275711656	-0.04653587809927758	0.00864712186664003	-0.3392166121967289	-0.3392166121967287	0.04263408631529675	-0.001157417783508992	-0.04315736025712934	0.00488783361382417	-0.3530837085960626	0.01666463888297834	0.007804289047687973	-0.4760445182143398	-0.01719367097702096	0.009867096530466213	0.3724264017398355	-0.04028165774135076	-57.47581085393099	-8.598567706566984	5.01418380265639	8.732401019493912	-781.2963448838154	76.04461275177493	1.145908030410484	0.1558292715279491	1.972541459331304	-5.717577798302853	0.2368194487198514	-0.6857889488702099	0.4249209948767889	-5.367680394375752	-5.36768039437591	0.7149889780892823	-0.000903351713351013	-0.962968236943725	-0.02520286888667098	3.890738644561733e-08	5.681249524729823e-08	2.121742447514422e-07	2.721345984544894e-07	-3.285689626362803e-08	-5.042934172704748e-08	5.189745292715422e-07
1.07	-0.2486747721733586	-0.02011000828276153	0.6103151218905236	1.506792655576999	-0.2404495787044515	-0.06963064755189616	-0.7851771106162224	1.573076351179672	1.573076351179685	-0.1727685929176333	0.174478422123774	0.434892631595068	0.1706198995755959	0.1536890195243086	0.01381057250906431	0.1547995513888222	-0.5049008378945816	0.0159239381430202	-0.05274907589439574	0.01352051625705026	-0.3927206841971669	-0.3927206841971599	0.05042017476851176	-0.001199474269387613	-0.05282951920321653	0.004564963368804646	-0.3529844163661329	0.01671864895358333	0.008042935887443679	-0.4751256524746595	-0.01734871260404574	0.009881885295763523	0.37279197083038	-0.04032443160105399	-57.5028135624225	-8.573909988358464	4.984023686577071	8.558869726481182	-781.1265051071297	76.04930680235677	1.112746051518632	0.1678000934111816	1.953585856762236	-5.654778854723446	0.2333250730466959	-0.5818633408462907	0.5435411463892128	-5.337054414600621	-5.337054414599445	0.8179084924241666	-0.004449386865530282	-0.9712972749797565	-0.03909552994873026	4.530135131304965e-08	6.653174051663999e-08	2.453335803510066e-07	3.175585057428826e-07	-3.907019506554087e-08	-5.728578345043852e-08	6.023516304497629e-07
1.08	-0.247082246072621	-0.01996328141881363	0.6119605902063068	1.501461194905691	-0.2402787524344444	-0.07018799985020452	-0.7850133730674896	1.568882409704055	1.568882409704055	-0.1722242128228911	0.1744664545673801	0.4343156494061865	0.170663392992263	0.1647883879405734	0.01555639852286146	0.1742680871693235	-0.5613247339634722	0.01823410310974867	-0.0586733995300517	0.01939361005810076	-0.4460361086665167	-0.4460361086665012	0.0585058517611794	-0.001185234348881849	-0.06257998021084442	0.004111436018220563	-0.3528851241361809	0.01677265902424454	0.008281582726824541	-0.4742067867350118	-0.01750375423105836	0.009896674061180827	0.3731575399209476	-0.04037475046385335	-57.53732275351531	-8.546985038553951	4.949410717147893	8.388554120700414	-781.0767060545419	76.08388751596847	1.112636343555949	0.1816839481575722	1.941219508366519	-5.637604448636821	0.2284833648847853	-0.6280141169778054	0.6248608770048001	-5.329950888158074	-5.329950888157916	0.7749066859798247	0.01035592956361822	-0.9786286492517854	-0.05133428999962998	5.13412449127447e-08	7.515393227930835e-08	2.739272193839124e-07	3.608973517935024e-07	-4.379629524730892e-08	-6.330122478890582e-08	6.765846727457525e-07
